<svg xmlns="http://www.w3.org/2000/svg" width="409.6" height="477.867" viewBox="0 0 409.6 477.867">
  <g id="pause" transform="translate(-34.133)">
    <g id="Raggruppa_7" data-name="Raggruppa 7">
      <g id="Raggruppa_6" data-name="Raggruppa 6">
        <path id="Tracciato_20" data-name="Tracciato 20" d="M187.733,0H51.2A17.067,17.067,0,0,0,34.133,17.067V460.8A17.067,17.067,0,0,0,51.2,477.867H187.733A17.067,17.067,0,0,0,204.8,460.8V17.067A17.067,17.067,0,0,0,187.733,0Z" fill="#fff"/>
      </g>
    </g>
    <g id="Raggruppa_9" data-name="Raggruppa 9">
      <g id="Raggruppa_8" data-name="Raggruppa 8">
        <path id="Tracciato_21" data-name="Tracciato 21" d="M426.667,0H290.133a17.067,17.067,0,0,0-17.067,17.067V460.8a17.067,17.067,0,0,0,17.067,17.067H426.666A17.067,17.067,0,0,0,443.733,460.8V17.067A17.067,17.067,0,0,0,426.667,0Z" fill="#fff"/>
      </g>
    </g>
  </g>
</svg>
