<svg xmlns="http://www.w3.org/2000/svg" width="40" height="32.444" viewBox="0 0 40 32.444"><g transform="translate(0 -48.357)"><g transform="translate(2.342 48.357)"><path d="M51.318,59.012H30V56.668H51.318a2.985,2.985,0,1,0,0-5.97V48.357a5.327,5.327,0,1,1,0,10.655Z" transform="translate(-30 -48.357)"/></g><g transform="translate(9.167 54.741)"><path d="M141.221,140.608H117.336v-2.344H141.22a2.916,2.916,0,1,0,0-5.832v-2.344a5.26,5.26,0,0,1,0,10.52Z" transform="translate(-117.336 -130.088)"/></g><g transform="translate(6.419 69.168)"><path d="M109.933,326.38a5.823,5.823,0,0,1-5.816-5.817h2.344a3.473,3.473,0,1,0,3.473-3.473H82.169v-2.344h27.764a5.816,5.816,0,1,1,0,11.633Z" transform="translate(-82.169 -314.747)"/></g><g transform="translate(10.311 73.856)"><path d="M131.99,374.752h9.687V377.1H131.99Z" transform="translate(-131.99 -374.752)"/></g><g transform="translate(6.419 51.98)"><path d="M82.169,94.735H92.494v2.344H82.169Z" transform="translate(-82.169 -94.735)"/></g><g transform="translate(0 62.918)"><path d="M0,234.744H6.979v2.344H0Z" transform="translate(0 -234.744)"/></g></g></svg>