<svg xmlns="http://www.w3.org/2000/svg" width="400" height="400" viewBox="0 0 400 400">
  <g id="Raggruppa_4" data-name="Raggruppa 4" transform="translate(-1795 -473)">
    <rect id="Rettangolo_1" data-name="Rettangolo 1" width="400" height="400" rx="10" transform="translate(1795 473)" fill="#da4a54"/>
    <g id="confusion" transform="translate(1846 486.911)">
      <path id="Tracciato_1" data-name="Tracciato 1" d="M95.569,44.515v93.591a10.188,10.188,0,0,0,10.188,10.188H272.6a10.188,10.188,0,0,0,10.188-10.188V44.515A37.424,37.424,0,0,0,245.368,7.091a27.721,27.721,0,0,0-17.466,6.2l-2.053,1.666a1.8,1.8,0,0,1-2.164.08L219.4,12.054a27.719,27.719,0,0,0-15.828-4.963H132.993A37.424,37.424,0,0,0,95.569,44.515Z" transform="translate(-39.805)" fill="#365e7d"/>
      <path id="Tracciato_2" data-name="Tracciato 2" d="M345.718,7.091a27.714,27.714,0,0,0-9.213,1.577,37.435,37.435,0,0,1,26.666,35.847v93.591a10.188,10.188,0,0,1-10.188,10.188h19.971a10.188,10.188,0,0,0,10.188-10.188V44.515A37.425,37.425,0,0,0,345.718,7.091Z" transform="translate(-140.155 0)" fill="#2b4d66"/>
      <path id="Tracciato_3" data-name="Tracciato 3" d="M235.429,344.621H182.015a39.527,39.527,0,0,0-39.527,39.527v48.489a5.034,5.034,0,0,0,5.034,5.034h122.4a5.035,5.035,0,0,0,5.034-5.034V384.148A39.529,39.529,0,0,0,235.429,344.621Z" transform="translate(-59.346 -140.582)" fill="#95d6a4"/>
      <path id="Tracciato_4" data-name="Tracciato 4" d="M288.023,344.622h-19.26a39.527,39.527,0,0,1,39.527,39.527v48.489a5.035,5.035,0,0,1-5.034,5.034h19.26a5.034,5.034,0,0,0,5.034-5.034V384.149a39.526,39.526,0,0,0-39.527-39.527Z" transform="translate(-111.94 -140.582)" fill="#78c2a4"/>
      <path id="Tracciato_5" data-name="Tracciato 5" d="M255.774,293.783l-21.135-1.243c-5.4,0-5.633,25.282-5.633,25.282V333.3a15.737,15.737,0,0,0,31.474,0V317.822s.69-24.038-4.706-24.038Z" transform="translate(-95.381 -118.89)" fill="#eaac9d"/>
      <path id="Tracciato_6" data-name="Tracciato 6" d="M201.8,239.567a75.939,75.939,0,0,1-75.939-75.939V117.7a2,2,0,0,1,2-1.995c35.146-.065,66.209-5.1,93.917-23a1.882,1.882,0,0,1,2.528.423c12.513,16.611,29.578,21.208,51.444,22.473a2.105,2.105,0,0,1,1.99,2.1v45.935A75.94,75.94,0,0,1,201.8,239.567Z" transform="translate(-52.419 -35.527)" fill="#ffcbbe"/>
      <path id="Tracciato_7" data-name="Tracciato 7" d="M322.794,130.583a123.768,123.768,0,0,1-18.059-2.207v50.24A75.951,75.951,0,0,1,238.82,253.9a75.976,75.976,0,0,0,85.963-75.279V132.681A2.1,2.1,0,0,0,322.794,130.583Z" transform="translate(-99.469 -50.515)" fill="#eaac9d"/>
      <path id="Tracciato_8" data-name="Tracciato 8" d="M197.617,203.6a4.376,4.376,0,0,1-4.376-4.376v-3.086a4.376,4.376,0,1,1,8.752,0v3.086A4.376,4.376,0,0,1,197.617,203.6Z" transform="translate(-80.485 -76.914)" fill="#365e7d"/>
      <path id="Tracciato_9" data-name="Tracciato 9" d="M308.136,203.6a4.376,4.376,0,0,1-4.376-4.376v-3.086a4.376,4.376,0,1,1,8.752,0v3.086A4.376,4.376,0,0,1,308.136,203.6Z" transform="translate(-126.516 -76.914)" fill="#365e7d"/>
      <g id="Raggruppa_3" data-name="Raggruppa 3" transform="translate(0 13.777)">
        <path id="Tracciato_10" data-name="Tracciato 10" d="M245.35,282.986a14.92,14.92,0,0,1-14.92-14.92V251.116a14.92,14.92,0,0,1,29.84,0v16.949A14.92,14.92,0,0,1,245.35,282.986Z" transform="translate(-95.974 -109.2)" fill="#a2373e"/>
        <path id="Tracciato_11" data-name="Tracciato 11" d="M472.664,62.3a4.376,4.376,0,0,1-4.376-4.376V45.908a4.376,4.376,0,0,1,4.376-4.376,7.12,7.12,0,0,0,7.1-7.5,7.115,7.115,0,0,0-14.15-.614,7.358,7.358,0,0,0-.068,1,4.376,4.376,0,1,1-8.752,0,16.065,16.065,0,0,1,.152-2.206,15.87,15.87,0,0,1,15.715-13.66c.109,0,.216,0,.325,0A15.914,15.914,0,0,1,488.51,33.58a15.739,15.739,0,0,1-4.34,11.761,15.942,15.942,0,0,1-7.129,4.323v8.26A4.377,4.377,0,0,1,472.664,62.3Z" transform="translate(-190.257 -18.55)" fill="#fff"/>
        <path id="Tracciato_12" data-name="Tracciato 12" d="M480.865,115.427a4.376,4.376,0,0,1-4.376-4.376v-3.01a4.376,4.376,0,1,1,8.752,0v3.01A4.376,4.376,0,0,1,480.865,115.427Z" transform="translate(-198.458 -54)" fill="#fff"/>
        <path id="Tracciato_13" data-name="Tracciato 13" d="M452.728,182.783a4.376,4.376,0,0,1-4.376-4.376v-8.624a4.376,4.376,0,0,1,4.376-4.376,3.874,3.874,0,0,0,3.866-4.084,3.926,3.926,0,0,0-3.784-3.659h-.079a3.871,3.871,0,0,0-3.837,3.327,3.99,3.99,0,0,0-.037.546,4.376,4.376,0,1,1-8.753,0,12.616,12.616,0,0,1,12.626-12.625l.256,0a12.663,12.663,0,0,1,12.349,11.956,12.522,12.522,0,0,1-3.453,9.356,12.656,12.656,0,0,1-4.778,3.145v5.037A4.377,4.377,0,0,1,452.728,182.783Z" transform="translate(-183.304 -72.845)" fill="#fff"/>
        <path id="Tracciato_14" data-name="Tracciato 14" d="M458.615,220.918a4.376,4.376,0,0,1-4.376-4.376V214.38a4.376,4.376,0,1,1,8.752,0v2.161A4.376,4.376,0,0,1,458.615,220.918Z" transform="translate(-189.191 -98.291)" fill="#fff"/>
        <g id="Raggruppa_1" data-name="Raggruppa 1">
          <path id="Tracciato_15" data-name="Tracciato 15" d="M15.867,48.845a4.376,4.376,0,0,0-4.376,4.376v8.26A15.937,15.937,0,0,0,4.361,65.8,15.738,15.738,0,0,0,.022,77.565a15.868,15.868,0,0,0,31.559,1.369,16.042,16.042,0,0,0,.153-2.207,4.376,4.376,0,1,0-8.752,0,7.32,7.32,0,0,1-.069,1,7.112,7.112,0,0,1-7.049,6.114h-.146a7.112,7.112,0,0,1-5.01-12.009,7.048,7.048,0,0,1,5.159-2.218,4.376,4.376,0,0,0,4.376-4.376V53.221a4.376,4.376,0,0,0-4.376-4.376Z" transform="translate(0 -31.168)" fill="#fff"/>
          <path id="Tracciato_16" data-name="Tracciato 16" d="M24.069,18.55a4.376,4.376,0,0,0-4.376,4.376v3.01a4.376,4.376,0,1,0,8.752,0v-3.01A4.376,4.376,0,0,0,24.069,18.55Z" transform="translate(-8.202 -18.55)" fill="#fff"/>
        </g>
        <g id="Raggruppa_2" data-name="Raggruppa 2" transform="translate(16.225 76.064)">
          <path id="Tracciato_17" data-name="Tracciato 17" d="M40.431,170.656a4.376,4.376,0,0,0-4.376,4.376v5.037a12.657,12.657,0,0,0-4.778,3.145,12.523,12.523,0,0,0-3.452,9.356,12.624,12.624,0,0,0,25.23-.666,4.376,4.376,0,0,0-8.752,0,3.96,3.96,0,0,1-.037.547,3.871,3.871,0,0,1-3.838,3.325h-.079a3.927,3.927,0,0,1-3.783-3.659,3.874,3.874,0,0,1,3.866-4.084,4.376,4.376,0,0,0,4.376-4.376v-8.624A4.376,4.376,0,0,0,40.431,170.656Z" transform="translate(-27.807 -157.967)" fill="#fff"/>
          <path id="Tracciato_18" data-name="Tracciato 18" d="M46.318,148.909a4.376,4.376,0,0,0-4.376,4.376v2.161a4.376,4.376,0,1,0,8.752,0v-2.161A4.376,4.376,0,0,0,46.318,148.909Z" transform="translate(-33.694 -148.909)" fill="#fff"/>
        </g>
      </g>
    </g>
    <text id="No_station_found" data-name="No station found" transform="translate(1817 840)" fill="#fff" font-size="53" font-family="Oswald" font-weight="700"><tspan x="0" y="0">No station found</tspan></text>
  </g>
</svg>
